<svg width="402" height="874" viewBox="0 0 402 874" fill="none" xmlns="http://www.w3.org/2000/svg">
<g clip-path="url(#clip0_177_7930)">
<rect width="402" height="874" fill="#1F2D5C"/>
<path d="M56.8479 462.931C53.4679 462.931 50.4647 462.372 47.8383 461.253C45.2348 460.134 43.1679 458.547 41.6378 456.492C40.1076 454.437 39.2398 452.04 39.0343 449.3L39 448.854H41.7063L41.7406 449.3C41.9689 451.537 42.734 453.49 44.0358 455.156C45.3604 456.823 47.1189 458.125 49.3114 459.061C51.5266 459.974 54.0731 460.431 56.9507 460.431C59.8054 460.431 62.3062 459.986 64.453 459.095C66.5997 458.182 68.2669 456.915 69.4545 455.293C70.6421 453.672 71.2358 451.777 71.2358 449.608V449.574C71.2358 446.788 70.2995 444.573 68.4268 442.929C66.5769 441.285 63.4709 439.96 59.1089 438.956L53.799 437.757C49.0716 436.661 45.623 435.097 43.4534 433.064C41.3066 431.009 40.2333 428.304 40.2333 424.947V424.878C40.2561 422.39 40.9641 420.186 42.3572 418.268C43.7503 416.327 45.6573 414.809 48.0781 413.713C50.4989 412.617 53.2509 412.069 56.334 412.069C59.4629 412.069 62.2491 412.639 64.6928 413.781C67.1364 414.9 69.0891 416.487 70.5507 418.542C72.0123 420.597 72.8459 422.983 73.0515 425.7L73.0857 426.146H70.4137L70.3452 425.7C70.1396 423.44 69.4202 421.488 68.187 419.844C66.9537 418.177 65.3208 416.887 63.2882 415.973C61.2785 415.037 58.949 414.569 56.2998 414.569C53.6734 414.569 51.3554 415.003 49.3456 415.87C47.3587 416.738 45.7943 417.948 44.6524 419.501C43.5333 421.031 42.9738 422.812 42.9738 424.844V424.878C42.9738 427.55 43.8988 429.719 45.7486 431.386C47.5985 433.03 50.556 434.32 54.6212 435.257L59.9653 436.49C63.3225 437.243 66.0288 438.191 68.0842 439.332C70.1396 440.474 71.6355 441.867 72.5719 443.511C73.5082 445.155 73.9764 447.142 73.9764 449.471V449.505C73.9764 452.199 73.257 454.551 71.8182 456.561C70.4023 458.57 68.4039 460.134 65.8232 461.253C63.2654 462.372 60.2736 462.931 56.8479 462.931Z" fill="#FCFCFD"/>
<path d="M92.7998 462.794C89.5797 462.794 86.782 462.064 84.4069 460.602C82.0317 459.118 80.1818 457.006 78.8572 454.266C77.5555 451.503 76.9046 448.226 76.9046 444.436V444.402C76.9046 440.611 77.5555 437.346 78.8572 434.606C80.159 431.843 81.9746 429.719 84.3041 428.235C86.6336 426.751 89.3284 426.009 92.3887 426.009C95.4719 426.009 98.1668 426.739 100.473 428.201C102.78 429.639 104.573 431.672 105.852 434.298C107.154 436.923 107.804 440.017 107.804 443.58V444.847H78.2063V442.621H106.571L105.201 444.436V443.545C105.201 440.417 104.653 437.723 103.557 435.462C102.483 433.201 100.976 431.466 99.0346 430.256C97.1162 429.023 94.9009 428.406 92.3887 428.406C89.8766 428.406 87.6499 429.023 85.7086 430.256C83.7902 431.489 82.2829 433.236 81.1867 435.496C80.0905 437.757 79.5424 440.44 79.5424 443.545V444.436C79.5424 447.861 80.0905 450.761 81.1867 453.136C82.3058 455.51 83.8587 457.314 85.8457 458.547C87.8554 459.78 90.1849 460.397 92.8341 460.397C94.9123 460.397 96.7508 460.077 98.3495 459.438C99.9481 458.776 101.273 457.839 102.323 456.629C103.397 455.396 104.162 453.946 104.618 452.279L104.687 452.005H107.359L107.291 452.314C106.925 453.912 106.32 455.362 105.475 456.664C104.653 457.942 103.614 459.038 102.358 459.952C101.101 460.865 99.6626 461.573 98.0411 462.075C96.4425 462.555 94.6954 462.794 92.7998 462.794Z" fill="#FCFCFD"/>
<path d="M112.218 462.212V426.591H114.856V433.989H114.959C115.781 431.706 117.254 429.811 119.378 428.304C121.525 426.797 124.151 426.043 127.257 426.043C131.254 426.043 134.394 427.253 136.678 429.674C138.984 432.071 140.138 435.451 140.138 439.812V462.212H137.5V440.12C137.5 436.307 136.541 433.407 134.622 431.42C132.704 429.434 130.043 428.441 126.641 428.441C124.288 428.441 122.221 428.966 120.44 430.016C118.681 431.066 117.311 432.528 116.329 434.4C115.347 436.273 114.856 438.453 114.856 440.942V462.212H112.218Z" fill="#FCFCFD"/>
<path d="M146.436 462.212V426.591H149.074V462.212H146.436ZM147.738 419.604C147.19 419.604 146.71 419.41 146.299 419.021C145.888 418.61 145.682 418.131 145.682 417.583C145.682 417.012 145.888 416.533 146.299 416.144C146.71 415.756 147.19 415.562 147.738 415.562C148.309 415.562 148.788 415.756 149.176 416.144C149.588 416.533 149.793 417.012 149.793 417.583C149.793 418.131 149.588 418.61 149.176 419.021C148.788 419.41 148.309 419.604 147.738 419.604Z" fill="#FCFCFD"/>
<path d="M169.657 462.794C166.505 462.772 163.73 462.018 161.332 460.534C158.957 459.05 157.107 456.926 155.783 454.163C154.458 451.4 153.796 448.146 153.796 444.402V444.333C153.796 440.565 154.458 437.312 155.783 434.572C157.107 431.831 158.957 429.719 161.332 428.235C163.73 426.751 166.505 426.009 169.657 426.009C172.809 426.009 175.572 426.751 177.947 428.235C180.345 429.719 182.206 431.831 183.531 434.572C184.878 437.312 185.552 440.565 185.552 444.333V444.402C185.552 448.169 184.878 451.435 183.531 454.197C182.206 456.96 180.345 459.084 177.947 460.568C175.572 462.052 172.809 462.794 169.657 462.794ZM169.657 460.397C172.306 460.397 174.624 459.758 176.611 458.479C178.598 457.177 180.14 455.328 181.236 452.93C182.332 450.533 182.88 447.69 182.88 444.402V444.333C182.88 441.045 182.321 438.214 181.202 435.839C180.105 433.441 178.564 431.603 176.577 430.324C174.59 429.046 172.283 428.406 169.657 428.406C167.008 428.406 164.69 429.057 162.703 430.359C160.739 431.637 159.209 433.464 158.112 435.839C157.016 438.214 156.468 441.045 156.468 444.333V444.402C156.468 447.69 157.016 450.533 158.112 452.93C159.209 455.328 160.739 457.166 162.703 458.445C164.69 459.723 167.008 460.374 169.657 460.397Z" fill="#FCFCFD"/>
<path d="M190 462.212V426.591H192.638V433.475H192.741C193.426 431.124 194.568 429.297 196.167 427.995C197.765 426.671 199.741 426.009 202.093 426.009C202.801 426.009 203.452 426.077 204.046 426.214C204.64 426.328 205.096 426.454 205.416 426.591V429.228C205.051 429.046 204.56 428.886 203.943 428.749C203.326 428.589 202.596 428.509 201.751 428.509C199.878 428.509 198.256 429 196.886 429.982C195.516 430.941 194.465 432.3 193.734 434.058C193.004 435.793 192.638 437.791 192.638 440.052V462.212H190Z" fill="#FCFCFD"/>
<path d="M236.241 456.664L235.076 462.212H204.382L214.899 412.788H245.593L244.394 418.336H220.038L216.646 434.195H239.735L238.571 439.675H215.481L211.884 456.664H236.241Z" fill="#FCFCFD"/>
<path d="M268.204 420.289L255.598 442.826H271.733L268.341 420.289H268.204ZM274.542 462.212L272.521 448.066H252.686L244.67 462.212H237.887L266.526 412.788H272.726L280.4 462.212H274.542Z" fill="#FCFCFD"/>
<path d="M282.311 447.69H288.511C288.74 449.608 289.413 451.298 290.532 452.759C291.651 454.22 293.147 455.362 295.02 456.184C296.893 457.006 299.074 457.417 301.563 457.417C303.687 457.417 305.594 457.097 307.284 456.458C308.974 455.796 310.31 454.848 311.292 453.615C312.297 452.359 312.799 450.829 312.799 449.026C312.799 446.788 312.103 445.03 310.71 443.751C309.339 442.472 307.124 441.353 304.064 440.394L300.775 439.367C296.687 438.088 293.627 436.41 291.594 434.332C289.585 432.231 288.58 429.514 288.58 426.18C288.58 423.349 289.299 420.871 290.738 418.747C292.2 416.624 294.209 414.968 296.767 413.781C299.348 412.594 302.317 412 305.674 412C309.031 412 312.012 412.582 314.615 413.747C317.241 414.889 319.297 416.533 320.781 418.679C322.289 420.803 323.042 423.349 323.042 426.317H316.876C316.807 424.604 316.305 423.097 315.369 421.796C314.455 420.471 313.176 419.444 311.532 418.713C309.888 417.96 307.912 417.583 305.605 417.583C303.253 417.583 301.278 417.971 299.679 418.747C298.103 419.524 296.916 420.529 296.116 421.762C295.34 422.995 294.952 424.308 294.952 425.7C294.952 427.596 295.637 429.183 297.007 430.461C298.4 431.717 300.592 432.813 303.584 433.749L306.873 434.777C310.984 436.056 314.078 437.757 316.157 439.88C318.235 441.981 319.274 444.596 319.274 447.724C319.274 450.304 318.6 452.759 317.253 455.088C315.928 457.417 313.941 459.324 311.292 460.808C308.666 462.269 305.4 463 301.495 463C298.069 463 294.917 462.395 292.04 461.185C289.185 459.952 286.878 458.193 285.12 455.91C283.361 453.627 282.425 450.887 282.311 447.69Z" fill="#FCFCFD"/>
<path d="M353.648 456.664L352.483 462.212H321.789L332.306 412.788H363L361.801 418.336H337.444L334.053 434.195H357.142L355.977 439.675H332.888L329.291 456.664H353.648Z" fill="#FCFCFD"/>
<rect x="402" y="874.25" width="50.25" height="50.25" transform="rotate(180 402 874.25)" fill="#E7ECF8" fill-opacity="0.2"/>
<rect x="351.75" y="824" width="50.25" height="50.25" transform="rotate(180 351.75 824)" fill="#E7ECF8" fill-opacity="0.2"/>
<rect x="201" y="773.75" width="50.25" height="50.25" transform="rotate(180 201 773.75)" fill="#E7ECF8" fill-opacity="0.2"/>
<rect x="50.25" y="824" width="50.25" height="50.25" transform="rotate(180 50.25 824)" fill="#E7ECF8" fill-opacity="0.2"/>
<rect x="100.5" y="874.25" width="50.25" height="50.25" transform="rotate(180 100.5 874.25)" fill="#E7ECF8" fill-opacity="0.2"/>
<rect x="201" y="874.25" width="50.25" height="50.25" transform="rotate(180 201 874.25)" fill="#E7ECF8" fill-opacity="0.2"/>
<rect x="251.25" y="824" width="50.25" height="50.25" transform="rotate(180 251.25 824)" fill="#E7ECF8" fill-opacity="0.2"/>
<rect x="351.75" y="723.5" width="50.25" height="50.25" transform="rotate(180 351.75 723.5)" fill="#E7ECF8" fill-opacity="0.2"/>
<rect x="352.25" y="623.25" width="50.25" height="50.25" transform="rotate(180 352.25 623.25)" fill="#E7ECF8" fill-opacity="0.2"/>
<rect x="402" y="673.25" width="50.25" height="50.25" transform="rotate(180 402 673.25)" fill="#E7ECF8" fill-opacity="0.2"/>
<rect y="1" width="50.25" height="50.25" fill="#E7ECF8" fill-opacity="0.2"/>
<rect x="50.25" y="51.25" width="50.25" height="50.25" fill="#E7ECF8" fill-opacity="0.2"/>
<rect x="201" y="101.5" width="50.25" height="50.25" fill="#E7ECF8" fill-opacity="0.2"/>
<rect x="351.75" y="51.25" width="50.25" height="50.25" fill="#E7ECF8" fill-opacity="0.2"/>
<rect x="301.5" y="1" width="50.25" height="50.25" fill="#E7ECF8" fill-opacity="0.2"/>
<rect x="201" y="1" width="50.25" height="50.25" fill="#E7ECF8" fill-opacity="0.2"/>
<rect x="150.75" y="51.25" width="50.25" height="50.25" fill="#E7ECF8" fill-opacity="0.2"/>
<rect x="50.25" y="151.75" width="50.25" height="50.25" fill="#E7ECF8" fill-opacity="0.2"/>
<rect y="202" width="50.25" height="50.25" fill="#E7ECF8" fill-opacity="0.2"/>
<rect x="50" y="252" width="50.25" height="50.25" fill="#E7ECF8" fill-opacity="0.2"/>
</g>
<defs>
<clipPath id="clip0_177_7930">
<rect width="402" height="874" fill="white"/>
</clipPath>
</defs>
</svg>
