<svg width="950" height="1000" viewBox="0 0 950 1000" fill="none" xmlns="http://www.w3.org/2000/svg">
<rect width="950" height="1000" fill="#202248"/>
<path d="M187.615 550.65C180.87 550.65 174.878 549.534 169.637 547.301C164.441 545.068 160.317 541.9 157.264 537.799C154.21 533.697 152.479 528.912 152.068 523.443L152 522.555H157.4L157.469 523.443C157.924 527.91 159.451 531.806 162.049 535.133C164.692 538.46 168.201 541.057 172.576 542.926C176.997 544.749 182.078 545.66 187.82 545.66C193.517 545.66 198.507 544.771 202.791 542.994C207.075 541.171 210.402 538.642 212.771 535.406C215.141 532.171 216.326 528.388 216.326 524.059V523.99C216.326 518.43 214.458 514.01 210.721 510.729C207.029 507.447 200.831 504.804 192.127 502.799L181.531 500.406C172.098 498.219 165.216 495.097 160.887 491.041C156.603 486.939 154.461 481.539 154.461 474.84V474.703C154.507 469.736 155.919 465.338 158.699 461.51C161.479 457.636 165.285 454.605 170.115 452.418C174.946 450.23 180.438 449.137 186.59 449.137C192.833 449.137 198.393 450.276 203.27 452.555C208.146 454.788 212.042 457.955 214.959 462.057C217.876 466.158 219.539 470.921 219.949 476.344L220.018 477.232H214.686L214.549 476.344C214.139 471.832 212.703 467.936 210.242 464.654C207.781 461.327 204.523 458.753 200.467 456.93C196.456 455.061 191.808 454.127 186.521 454.127C181.281 454.127 176.655 454.993 172.645 456.725C168.68 458.456 165.558 460.872 163.279 463.971C161.046 467.024 159.93 470.579 159.93 474.635V474.703C159.93 480.035 161.775 484.365 165.467 487.691C169.158 490.973 175.06 493.548 183.172 495.416L193.836 497.877C200.535 499.381 205.936 501.272 210.037 503.551C214.139 505.829 217.124 508.609 218.992 511.891C220.861 515.172 221.795 519.137 221.795 523.785V523.854C221.795 529.231 220.359 533.925 217.488 537.936C214.663 541.946 210.675 545.068 205.525 547.301C200.421 549.534 194.451 550.65 187.615 550.65Z" fill="white"/>
<path d="M259.357 550.377C252.931 550.377 247.348 548.919 242.609 546.002C237.869 543.04 234.178 538.824 231.535 533.355C228.937 527.841 227.638 521.301 227.638 513.736V513.668C227.638 506.103 228.937 499.586 231.535 494.117C234.132 488.603 237.755 484.365 242.404 481.402C247.052 478.44 252.43 476.959 258.536 476.959C264.689 476.959 270.066 478.417 274.669 481.334C279.272 484.205 282.85 488.261 285.402 493.502C287.999 498.743 289.298 504.918 289.298 512.027V514.557H230.236V510.113H286.837L284.103 513.736V511.959C284.103 505.715 283.009 500.338 280.822 495.826C278.68 491.314 275.672 487.851 271.798 485.436C267.97 482.975 263.55 481.744 258.536 481.744C253.523 481.744 249.08 482.975 245.206 485.436C241.378 487.896 238.37 491.383 236.183 495.895C233.995 500.406 232.902 505.761 232.902 511.959V513.736C232.902 520.572 233.995 526.36 236.183 531.1C238.416 535.839 241.515 539.439 245.48 541.9C249.49 544.361 254.139 545.592 259.425 545.592C263.572 545.592 267.241 544.954 270.431 543.678C273.621 542.356 276.264 540.488 278.361 538.072C280.503 535.611 282.029 532.717 282.941 529.391L283.077 528.844H288.41L288.273 529.459C287.544 532.649 286.336 535.543 284.65 538.141C283.009 540.693 280.936 542.88 278.429 544.703C275.923 546.526 273.051 547.939 269.816 548.941C266.626 549.898 263.139 550.377 259.357 550.377Z" fill="white"/>
<path d="M298.106 549.215V478.121H303.37V492.887H303.575C305.216 488.329 308.155 484.547 312.393 481.539C316.677 478.531 321.918 477.027 328.116 477.027C336.091 477.027 342.357 479.443 346.915 484.273C351.518 489.059 353.819 495.803 353.819 504.508V549.215H348.555V505.123C348.555 497.512 346.641 491.725 342.813 487.76C338.985 483.795 333.676 481.812 326.885 481.812C322.191 481.812 318.067 482.861 314.512 484.957C311.003 487.053 308.269 489.97 306.309 493.707C304.35 497.444 303.37 501.796 303.37 506.764V549.215H298.106Z" fill="white"/>
<path d="M366.387 549.215V478.121H371.65V549.215H366.387ZM368.984 464.176C367.891 464.176 366.934 463.788 366.113 463.014C365.293 462.193 364.883 461.236 364.883 460.143C364.883 459.003 365.293 458.046 366.113 457.271C366.934 456.497 367.891 456.109 368.984 456.109C370.124 456.109 371.081 456.497 371.856 457.271C372.676 458.046 373.086 459.003 373.086 460.143C373.086 461.236 372.676 462.193 371.856 463.014C371.081 463.788 370.124 464.176 368.984 464.176Z" fill="white"/>
<path d="M412.724 550.377C406.435 550.331 400.898 548.827 396.113 545.865C391.373 542.903 387.682 538.665 385.039 533.15C382.395 527.636 381.074 521.142 381.074 513.668V513.531C381.074 506.012 382.395 499.518 385.039 494.049C387.682 488.58 391.373 484.365 396.113 481.402C400.898 478.44 406.435 476.959 412.724 476.959C419.013 476.959 424.527 478.44 429.267 481.402C434.052 484.365 437.766 488.58 440.41 494.049C443.098 499.518 444.443 506.012 444.443 513.531V513.668C444.443 521.188 443.098 527.704 440.41 533.219C437.766 538.733 434.052 542.971 429.267 545.934C424.527 548.896 419.013 550.377 412.724 550.377ZM412.724 545.592C418.011 545.592 422.636 544.316 426.601 541.764C430.566 539.166 433.642 535.475 435.83 530.689C438.017 525.904 439.111 520.23 439.111 513.668V513.531C439.111 506.969 437.994 501.318 435.761 496.578C433.574 491.793 430.497 488.124 426.533 485.572C422.568 483.02 417.965 481.744 412.724 481.744C407.438 481.744 402.812 483.043 398.847 485.641C394.928 488.193 391.874 491.839 389.687 496.578C387.499 501.318 386.406 506.969 386.406 513.531V513.668C386.406 520.23 387.499 525.904 389.687 530.689C391.874 535.475 394.928 539.143 398.847 541.695C402.812 544.247 407.438 545.546 412.724 545.592Z" fill="white"/>
<path d="M453.319 549.215V478.121H458.583V491.861H458.788C460.155 487.167 462.434 483.521 465.624 480.924C468.814 478.281 472.756 476.959 477.45 476.959C478.863 476.959 480.162 477.096 481.346 477.369C482.531 477.597 483.443 477.848 484.081 478.121V483.385C483.352 483.02 482.372 482.701 481.141 482.428C479.911 482.109 478.453 481.949 476.766 481.949C473.029 481.949 469.794 482.929 467.059 484.889C464.325 486.803 462.229 489.514 460.77 493.023C459.312 496.487 458.583 500.475 458.583 504.986V549.215H453.319Z" fill="white"/>
<path d="M545.592 538.141L543.268 549.215H482.018L503.004 450.572H564.254L561.861 461.646H513.258L506.49 493.297H552.564L550.24 504.234H504.166L496.988 538.141H545.592Z" fill="white"/>
<path d="M609.374 465.543L584.218 510.523H616.415L609.647 465.543H609.374ZM622.02 549.215L617.987 520.982H578.407L562.411 549.215H548.876L606.024 450.572H618.397L633.71 549.215H622.02Z" fill="white"/>
<path d="M637.523 520.23H649.896C650.352 524.059 651.696 527.431 653.929 530.348C656.162 533.264 659.147 535.543 662.884 537.184C666.621 538.824 670.974 539.645 675.941 539.645C680.179 539.645 683.985 539.007 687.357 537.73C690.729 536.409 693.395 534.518 695.355 532.057C697.36 529.55 698.363 526.497 698.363 522.896C698.363 518.43 696.973 514.921 694.193 512.369C691.459 509.817 687.038 507.584 680.931 505.67L674.369 503.619C666.211 501.067 660.104 497.717 656.048 493.57C652.038 489.378 650.033 483.954 650.033 477.301C650.033 471.65 651.468 466.705 654.339 462.467C657.256 458.229 661.267 454.924 666.371 452.555C671.52 450.185 677.445 449 684.144 449C690.843 449 696.791 450.162 701.986 452.486C707.227 454.765 711.328 458.046 714.291 462.33C717.298 466.568 718.802 471.65 718.802 477.574H706.498C706.361 474.156 705.358 471.148 703.49 468.551C701.667 465.908 699.115 463.857 695.834 462.398C692.552 460.895 688.61 460.143 684.007 460.143C679.313 460.143 675.371 460.917 672.181 462.467C669.037 464.016 666.667 466.021 665.072 468.482C663.522 470.943 662.748 473.564 662.748 476.344C662.748 480.126 664.115 483.294 666.849 485.846C669.629 488.352 674.004 490.54 679.974 492.408L686.537 494.459C694.74 497.011 700.915 500.406 705.062 504.645C709.209 508.837 711.283 514.055 711.283 520.299C711.283 525.449 709.938 530.348 707.25 534.996C704.606 539.645 700.642 543.45 695.355 546.412C690.114 549.329 683.597 550.787 675.804 550.787C668.968 550.787 662.679 549.579 656.937 547.164C651.24 544.703 646.638 541.194 643.129 536.637C639.619 532.079 637.751 526.611 637.523 520.23Z" fill="white"/>
<path d="M779.875 538.141L777.551 549.215H716.301L737.288 450.572H798.538L796.145 461.646H747.541L740.774 493.297H786.848L784.524 504.234H738.45L731.272 538.141H779.875Z" fill="white"/>
</svg>
