<svg width="107" height="17" viewBox="0 0 107 17" fill="none" xmlns="http://www.w3.org/2000/svg">
<path d="M5.89421 16.9772C4.77797 16.9772 3.78617 16.7907 2.91882 16.4177C2.05902 16.0448 1.37645 15.5158 0.871122 14.8308C0.365796 14.1457 0.0791929 13.3465 0.0113133 12.4332L0 12.2848H0.893748L0.905062 12.4332C0.980483 13.1791 1.23315 13.8299 1.66305 14.3855C2.1005 14.9411 2.68124 15.375 3.40529 15.687C4.13689 15.9915 4.97784 16.1437 5.92815 16.1437C6.87093 16.1437 7.69679 15.9953 8.40576 15.6985C9.11472 15.394 9.6653 14.9716 10.0575 14.4312C10.4497 13.8908 10.6458 13.259 10.6458 12.5359V12.5245C10.6458 11.5959 10.3366 10.8576 9.7181 10.3096C9.10718 9.76159 8.08145 9.32013 6.64089 8.98522L4.88733 8.58563C3.3261 8.22028 2.18723 7.6989 1.47073 7.02149C0.76176 6.33647 0.407278 5.43452 0.407278 4.31565V4.29281C0.41482 3.46317 0.648627 2.72868 1.1087 2.08932C1.56877 1.44236 2.19855 0.936199 2.99802 0.570853C3.79749 0.205507 4.70632 0.0228341 5.72451 0.0228341C6.75779 0.0228341 7.67794 0.213118 8.48495 0.593687C9.29197 0.966644 9.93682 1.49563 10.4195 2.18066C10.9022 2.86568 11.1775 3.66107 11.2454 4.56682L11.2567 4.71525H10.3743L10.3516 4.56682C10.2838 3.8133 10.0462 3.16253 9.63891 2.61451C9.23163 2.05888 8.69236 1.62883 8.02111 1.32438C7.3574 1.01231 6.58809 0.856279 5.7132 0.856279C4.84585 0.856279 4.08032 1.0009 3.41661 1.29013C2.76044 1.57936 2.2438 1.98276 1.86669 2.50034C1.49712 3.0103 1.31234 3.60398 1.31234 4.2814V4.29281C1.31234 5.18334 1.6178 5.90642 2.22871 6.46206C2.83963 7.01007 3.81634 7.44012 5.15885 7.75218L6.92372 8.1632C8.03242 8.41437 8.92617 8.73024 9.60497 9.11081C10.2838 9.49138 10.7778 9.95568 11.087 10.5037C11.3962 11.0517 11.5508 11.7139 11.5508 12.4903V12.5017C11.5508 13.3998 11.3133 14.1838 10.8381 14.8536C10.3705 15.5234 9.71056 16.0448 8.85829 16.4177C8.01357 16.7907 7.02554 16.9772 5.89421 16.9772Z" fill="#1F2D5C"/>
<path d="M17.7672 16.9315C16.7038 16.9315 15.7799 16.6879 14.9955 16.2008C14.2111 15.7061 13.6002 15.002 13.1627 14.0886C12.7328 13.1677 12.5179 12.0754 12.5179 10.812V10.8005C12.5179 9.53705 12.7328 8.44862 13.1627 7.53526C13.5926 6.61428 14.1922 5.90642 14.9615 5.41169C15.7308 4.91695 16.6208 4.66958 17.6315 4.66958C18.6497 4.66958 19.5396 4.91314 20.3014 5.40027C21.0632 5.87979 21.6552 6.5572 22.0776 7.43251C22.5075 8.30781 22.7224 9.33915 22.7224 10.5265V10.949H12.9478V10.2069H22.3152L21.8626 10.812V10.5151C21.8626 9.47235 21.6816 8.57421 21.3196 7.82068C20.9651 7.06716 20.4673 6.48869 19.8262 6.08529C19.1927 5.67428 18.4611 5.46877 17.6315 5.46877C16.8018 5.46877 16.0665 5.67428 15.4254 6.08529C14.7918 6.49631 14.2941 7.07858 13.932 7.8321C13.57 8.58563 13.389 9.47996 13.389 10.5151V10.812C13.389 11.9537 13.57 12.9203 13.932 13.7119C14.3016 14.5035 14.8145 15.1048 15.4706 15.5158C16.1343 15.9268 16.9036 16.1323 17.7785 16.1323C18.4649 16.1323 19.072 16.0257 19.6 15.8126C20.1279 15.5919 20.5654 15.2798 20.9123 14.8764C21.2668 14.4654 21.5195 13.9821 21.6703 13.4265L21.6929 13.3351H22.5754L22.5527 13.4379C22.4321 13.9707 22.2322 14.454 21.9531 14.8878C21.6816 15.3141 21.3384 15.6794 20.9236 15.9839C20.5088 16.2883 20.0336 16.5243 19.4982 16.6917C18.9702 16.8516 18.3932 16.9315 17.7672 16.9315Z" fill="#1F2D5C"/>
<path d="M24.1801 16.7374V4.86367H25.0513V7.32975H25.0852C25.3567 6.56861 25.8432 5.93687 26.5446 5.43452C27.2536 4.93217 28.1209 4.68099 29.1467 4.68099C30.4665 4.68099 31.5036 5.0844 32.2578 5.8912C33.0196 6.6904 33.4004 7.81688 33.4004 9.27065V16.7374H32.5293V9.3734C32.5293 8.10231 32.2126 7.13566 31.579 6.47347C30.9455 5.81128 30.0668 5.48019 28.943 5.48019C28.1662 5.48019 27.4836 5.65525 26.8953 6.00537C26.3146 6.3555 25.862 6.84262 25.5377 7.46676C25.2134 8.09089 25.0513 8.81777 25.0513 9.64741V16.7374H24.1801Z" fill="#1F2D5C"/>
<path d="M35.4804 16.7374V4.86367H36.3515V16.7374H35.4804ZM35.9103 2.53459C35.7293 2.53459 35.5709 2.46989 35.4351 2.3405C35.2994 2.20349 35.2315 2.04365 35.2315 1.86098C35.2315 1.6707 35.2994 1.51086 35.4351 1.38146C35.5709 1.25207 35.7293 1.18737 35.9103 1.18737C36.0988 1.18737 36.2572 1.25207 36.3854 1.38146C36.5212 1.51086 36.5891 1.6707 36.5891 1.86098C36.5891 2.04365 36.5212 2.20349 36.3854 2.3405C36.2572 2.46989 36.0988 2.53459 35.9103 2.53459Z" fill="#1F2D5C"/>
<path d="M43.149 16.9315C42.1082 16.9239 41.1918 16.6727 40.3999 16.178C39.6155 15.6832 39.0046 14.9754 38.5672 14.0544C38.1297 13.1334 37.911 12.0488 37.911 10.8005V10.7777C37.911 9.52183 38.1297 8.43721 38.5672 7.52384C39.0046 6.61048 39.6155 5.90642 40.3999 5.41169C41.1918 4.91695 42.1082 4.66958 43.149 4.66958C44.1899 4.66958 45.1025 4.91695 45.8869 5.41169C46.6788 5.90642 47.2935 6.61048 47.7309 7.52384C48.1759 8.43721 48.3984 9.52183 48.3984 10.7777V10.8005C48.3984 12.0564 48.1759 13.1448 47.7309 14.0658C47.2935 14.9868 46.6788 15.6946 45.8869 16.1894C45.1025 16.6841 44.1899 16.9315 43.149 16.9315ZM43.149 16.1323C44.0239 16.1323 44.7895 15.9192 45.4456 15.4929C46.1018 15.0591 46.6109 14.4426 46.9729 13.6434C47.335 12.8442 47.516 11.8966 47.516 10.8005V10.7777C47.516 9.68167 47.3312 8.73785 46.9616 7.94627C46.5996 7.14708 46.0905 6.53436 45.4343 6.10813C44.7782 5.68189 44.0164 5.46877 43.149 5.46877C42.2742 5.46877 41.5086 5.6857 40.8525 6.11954C40.2038 6.54578 39.6985 7.15469 39.3365 7.94627C38.9744 8.73785 38.7934 9.68167 38.7934 10.7777V10.8005C38.7934 11.8966 38.9744 12.8442 39.3365 13.6434C39.6985 14.4426 40.2038 15.0553 40.8525 15.4815C41.5086 15.9078 42.2742 16.1247 43.149 16.1323Z" fill="#1F2D5C"/>
<path d="M49.8674 16.7374V4.86367H50.7385V7.1585H50.7725C50.9987 6.37452 51.3758 5.76561 51.9038 5.33177C52.4318 4.89031 53.0841 4.66958 53.861 4.66958C54.0948 4.66958 54.3098 4.69241 54.5058 4.73808C54.7019 4.77614 54.8528 4.818 54.9584 4.86367V5.74278C54.8377 5.68189 54.6755 5.62861 54.4719 5.58294C54.2683 5.52966 54.0269 5.50302 53.7479 5.50302C53.1294 5.50302 52.5939 5.66667 52.1414 5.99396C51.6888 6.31363 51.3419 6.76651 51.1006 7.35259C50.8592 7.93105 50.7385 8.59704 50.7385 9.35057V16.7374H49.8674Z" fill="#1F2D5C"/>
<path d="M65.1383 14.8878L64.7536 16.7374H54.6169L58.0901 0.262592H68.2268L67.8308 2.11216H59.7871L58.6671 7.39825H66.2922L65.9076 9.22498H58.2824L57.0945 14.8878H65.1383Z" fill="#1F2D5C"/>
<path d="M75.694 2.76293L71.5307 10.2754H76.8593L75.7392 2.76293H75.694ZM77.7869 16.7374L77.1195 12.0222H70.5691L67.9218 16.7374H65.6817L75.1396 0.262592H77.1873L79.7215 16.7374H77.7869Z" fill="#1F2D5C"/>
<path d="M80.3526 11.8966H82.4003C82.4757 12.5359 82.6982 13.0992 83.0678 13.5863C83.4373 14.0734 83.9314 14.454 84.5498 14.728C85.1683 15.002 85.8886 15.139 86.7107 15.139C87.4121 15.139 88.0419 15.0325 88.6 14.8193C89.1581 14.5986 89.5993 14.2827 89.9236 13.8717C90.2555 13.4531 90.4214 12.9431 90.4214 12.3418C90.4214 11.5959 90.1914 11.0098 89.7313 10.5836C89.2788 10.1574 88.5472 9.78442 87.5365 9.46474L86.4505 9.12223C85.1004 8.69599 84.0897 8.13656 83.4185 7.44392C82.7548 6.74368 82.4229 5.83792 82.4229 4.72666C82.4229 3.78285 82.6605 2.95702 83.1357 2.24916C83.6184 1.5413 84.2821 0.989478 85.1268 0.593687C85.9791 0.197896 86.9595 0 88.0683 0C89.1769 0 90.1612 0.19409 91.021 0.58227C91.8884 0.962839 92.5672 1.51086 93.0574 2.22633C93.5552 2.93418 93.8041 3.78285 93.8041 4.77233H91.7677C91.7451 4.20148 91.5791 3.69913 91.2699 3.26528C90.9682 2.82382 90.5459 2.48131 90.0028 2.23774C89.4598 1.98657 88.8074 1.86098 88.0456 1.86098C87.2688 1.86098 86.6164 1.99037 86.0884 2.24916C85.568 2.50795 85.1758 2.84285 84.9118 3.25386C84.6554 3.66488 84.5272 4.10253 84.5272 4.56682C84.5272 5.19857 84.7535 5.72756 85.206 6.15379C85.6661 6.57242 86.3901 6.93777 87.3781 7.24983L88.4642 7.59234C89.8218 8.01858 90.8438 8.58563 91.5301 9.29349C92.2164 9.99373 92.5596 10.8652 92.5596 11.908C92.5596 12.7681 92.3371 13.5863 91.8921 14.3627C91.4547 15.139 90.7985 15.7746 89.9236 16.2693C89.0563 16.7564 87.9777 17 86.688 17C85.5567 17 84.5159 16.7983 83.5656 16.3949C82.6228 15.9839 81.861 15.3978 81.2803 14.6367C80.6995 13.8755 80.3903 12.9622 80.3526 11.8966Z" fill="#1F2D5C"/>
<path d="M103.911 14.8878L103.527 16.7374H93.3901L96.8633 0.262592H107L106.604 2.11216H98.5603L97.4403 7.39825H105.065L104.681 9.22498H97.0556L95.8677 14.8878H103.911Z" fill="#1F2D5C"/>
</svg>
